<svg height="100" width="100" xmlns="http://www.w3.org/2000/svg" viewBox="0 0 100 100">
<g fill="#d96528">
<path d="M98.087 73.305c.001-.037-.009-.072-.01-.108l.001-.016c0-.008-.004-.015-.004-.023a1.818 1.818 0 0 0-.743-1.405l-.732-.53c-.12-1.46-.992-3.242-1.94-4.967l-.605-1.102a11.062 11.062 0 0 1-1.265-3.81l-1.523-10.928a5.73 5.73 0 0 0-2.711-4.124L75.536 38.38v-4.725-.006-.007c0-.05-.013-.096-.02-.144-.007-.037-.007-.076-.017-.111-.012-.042-.033-.08-.05-.12-.017-.04-.03-.082-.051-.12-.016-.025-.038-.047-.056-.071a.99.99 0 0 0-.305-.285l-.007-.005-.002-.002h-.002L41.8 13.873a.997.997 0 0 0-1.01.014L18.121 27.576l-.014.008c-.034.02-.06.05-.092.074-.036.028-.075.053-.107.085-.03.031-.052.068-.077.102-.026.035-.056.066-.077.104-.024.043-.038.09-.056.136-.013.034-.031.066-.04.101-.013.049-.015.1-.02.151-.004.035-.014.069-.014.104v.012l.038 29.762c0 .36.194.692.508.869l4.018 2.273c-.246.665-.377 1.42-.38 2.264-.01 3.925 2.656 8.543 6.069 10.513 1.042.601 2.065.905 3.01.905.704 0 1.364-.169 1.954-.509l.008-.005c.002-.001.004-.001.005-.003l3.502-2.035c.819-.475 1.53-.997 1.885-2.05l13.153 7.438.005.002.006.005 3.85 2.108c-.074.424-.119.87-.12 1.347-.013 4.27 2.886 9.294 6.601 11.438 1.127.65 2.232.979 3.25.979a4.15 4.15 0 0 0 2.094-.545l.01-.007.005-.002c.002 0 .003 0 .005-.002l2.855-1.66c.047.068.087.142.15.197l.873.756c.055.048.115.09.18.124.573.31 1.21.465 1.845.465.698 0 1.395-.186 2.01-.558l21.552-13.09c1.316-.796 1.418-2.615 1.418-3.122l.088-2.911c.002-.032.014-.062.015-.094zm-5.18-6.086c.513.934 1.716 3.123 1.716 4.334 0 .132.029.256.075.371a.99.99 0 0 0 .4.68l.857.622-21.909 13.641-.05-2.524c0-1.372-.76-2.604-1.429-3.69-.18-.294-.356-.58-.508-.857l-.606-1.102a11.047 11.047 0 0 1-1.008-2.564l20.843-12.41c.258.827.592 1.63 1.013 2.397l.605 1.102zm-25.923-.84l.965 6.921-8.105-4.487v-6.366l7.14 3.932zm23.834-4.708l-20.75 12.355-1.08-7.757 20.69-12.765 1.13 8.115c.003.018.008.034.01.052zm-1.533-10.98l.09.65-20.69 12.765-.02-.15a5.73 5.73 0 0 0-2.71-4.123l-11.926-7.248 20.36-12.562 13.127 7.978a3.742 3.742 0 0 1 1.77 2.69zM73.536 35.427v2.773L52.844 50.966l-.005-3.062 2.173-1.31 18.524-11.168zM41.32 15.903L72.558 33.68l-1.408.848L51.823 46.18 20.602 28.414l20.717-12.511zM28.878 72.4c-2.756-1.59-5.077-5.608-5.068-8.774 0-.466.058-.888.158-1.264l8.355 4.726c.502 1.21.661 1.928.658 2.982a5.537 5.537 0 0 1-.076.929c-.03.172-.085.315-.132.467-.03.1-.049.216-.087.308-.05.122-.124.213-.187.32-.057.093-.102.203-.168.284-.052.064-.122.1-.18.156-.1.093-.192.196-.307.262-.726.418-1.806.273-2.966-.396zm6.474-1.642l-.427.248c.003-.024.002-.051.004-.075.031-.275.052-.559.052-.855a8.584 8.584 0 0 0-.139-1.564l1.6.905c-.107.756-.442.964-1.09 1.34zm2.848-2.644a.99.99 0 0 0-.444-.251L19.662 57.63l-.035-27.47 31.212 17.761.007 4.658.038 22.71L38.2 68.115zm14.687-13.884l12.029 7.311a3.724 3.724 0 0 1 1.68 2.34l-6.317-3.478a1.63 1.63 0 0 0-1.629.025 1.628 1.628 0 0 0-.806 1.414v7.181c0 .598.325 1.149.847 1.438l9.635 5.333c.257 1.354.71 2.652 1.374 3.862l.606 1.102c.168.305.36.62.558.941.556.904 1.131 1.837 1.131 2.663l.049 2.423-1.95-1.373c-.505-1.42-2.738-6.8-8.1-8.951-.924-.371-1.781-.497-2.559-.457-.06.001-.123-.005-.183-.001-.097.005-.19.025-.284.037-.12.015-.24.024-.357.049-.088.019-.172.051-.258.075-.118.034-.238.062-.353.106-.04.015-.076.037-.115.054a6.036 6.036 0 0 0-2.323 1.552l-2.675-1.465v-22.18zm9.85 36.812c-3.047-1.759-5.612-6.201-5.601-9.7.004-1.498.462-2.586 1.289-3.066l.023-.011c.115-.064.241-.106.368-.147.144-.04.294-.07.452-.09.045-.005.087-.014.132-.016.072-.006.146-.007.22-.008.124.003.25.013.38.032.05.008.102.02.152.03a4.026 4.026 0 0 1 .534.141c.12.04.241.088.364.14.06.025.119.048.18.076.155.072.312.154.472.243.025.014.05.025.075.04.762.44 1.493 1.047 2.162 1.765 2.006 2.156 3.447 5.31 3.44 7.934 0 .187-.008.368-.023.542-.005.055-.014.104-.02.157-.013.117-.025.234-.044.344-.012.067-.03.128-.044.192-.02.09-.037.182-.061.267-.018.06-.041.115-.06.174-.028.08-.053.163-.085.239-.024.057-.053.106-.08.16-.033.069-.065.141-.103.205-.03.052-.067.096-.1.144-.04.058-.077.119-.12.17-.037.046-.08.083-.12.124-.045.047-.088.098-.137.14-.043.037-.092.065-.138.098-.053.039-.103.081-.16.114-.839.482-2.026.33-3.347-.433zm6.564-1.561c.045-.343.077-.696.078-1.07 0-.363-.026-.732-.066-1.104l.319.225.069 1.841-.41.238c.006-.041.004-.088.01-.13zm26.228-11.76l-21.552 13.09a1.894 1.894 0 0 1-1.78.088l-.452-.392-.058-1.526.82.578a1 1 0 0 0 1.047.065.988.988 0 0 0 .336-.305l22.116-13.77-.022.73c0 .757-.233 1.308-.455 1.442z"/><path d="M75.433 84.071l3.6-2.308v-2.494l-3.6 2.308zM89.709 75.551l3.6-2.308v-2.494l-3.6 2.308zM13.85 23.165l-9.32-4.922a.999.999 0 1 0-.934 1.769l9.32 4.921a.997.997 0 0 0 1.35-.417.999.999 0 0 0-.416-1.351zM13.185 13.404l9.32 4.922a1 1 0 0 0 .934-1.769l-9.32-4.921a1 1 0 0 0-.934 1.768zM24.085 7.634l9.32 4.922a.997.997 0 0 0 1.35-.417.999.999 0 0 0-.416-1.352l-9.32-4.922a.999.999 0 1 0-.934 1.769zM13.85 33.1l-9.32-4.922a1 1 0 1 0-.934 1.768l9.32 4.922a.997.997 0 0 0 1.35-.417.999.999 0 0 0-.416-1.351zM13.85 43.818l-9.32-4.922a1 1 0 0 0-.934 1.769l9.32 4.921a.997.997 0 0 0 1.35-.417.999.999 0 0 0-.416-1.351zM13.85 54.03l-9.32-4.922a.999.999 0 1 0-.934 1.768l9.32 4.922a.997.997 0 0 0 1.35-.417 1 1 0 0 0-.416-1.352z"/>
</g>
</svg>