<svg height="100" width="100" xmlns="http://www.w3.org/2000/svg" viewBox="0 0 100 100">
<g fill="#d96528">
<path d="M38.24 71.29L27.477 64.8c-.347-.21-.78-.21-1.127 0l-4.809 2.9c-.331.198-.528.548-.528.935 0 .386.197.735.528.933l10.762 6.49a1.087 1.087 0 0 0 1.127 0l4.81-2.9c.33-.199.528-.549.527-.935a1.08 1.08 0 0 0-.529-.933zm-.516 1.013l-4.904 2.9-10.806-6.568c0-.034.014-.06.044-.078v-.001l4.903-2.9 10.763 6.49v.157z"/><path d="M77.068 18.466c-7.433-4.29-14.459-5.362-18.793-2.867-2.24 1.288-3.609 3.41-4.058 6.179L33.271 8.962c-.992-.608-2.195-.631-3.212-.061s-1.625 1.607-1.625 2.773v30.834L3.937 57.628a3.768 3.768 0 0 0-1.802 3.242 3.775 3.775 0 0 0 1.822 3.234l14.36 8.743a1 1 0 0 0 .938.054l.616-.283a.566.566 0 0 1 .528.03l8.635 5.23a1.002 1.002 0 0 0 .16 1.59l14.406 8.77h-.001a8.739 8.739 0 0 0 4.551 1.283 8.765 8.765 0 0 0 4.607-1.314l24.356-15.268c.1-.02.197-.052.288-.103.315-.178.51-.51.51-.871V54.988c4.087 2.073 7.987 3.145 11.305 3.145 2.122 0 4.006-.437 5.549-1.324 2.76-1.588 4.224-4.425 4.235-8.203.027-9.621-9.812-23.142-21.932-30.14zM47.847 39.823a1 1 0 0 0 .721.782L64.71 44.99a52.5 52.5 0 0 0 8.112 6.95v13.332L33.367 40.943V14.88L54.566 27.95c.38 1.597.962 3.268 1.743 4.975l-8.07 5.908a1 1 0 0 0-.392.99zm-16.81-29.177a1.158 1.158 0 0 1 1.192.022l21.82 13.35c.01.829.094 1.695.245 2.59L33.13 13.558a.5.5 0 0 0-.763.425v27.24c0 .173.09.334.237.425L73.06 66.593a.5.5 0 0 0 .762-.426v-13.56c.693.453 1.388.89 2.09 1.297v16.29L60.9 61.131l-30.467-18.52V11.675c0-.624.42-.927.602-1.028zM51.7 86.509a6.72 6.72 0 0 1-7.06.02h-.001L31.15 78.317a1.795 1.795 0 0 0-.813-1.988l-8.9-5.391a2.569 2.569 0 0 0-2.399-.138l-.134.061-13.906-8.466a1.76 1.76 0 0 1-.863-1.53 1.763 1.763 0 0 1 .853-1.535l24.26-14.974 30.65 18.506 14.99 9.11L51.7 86.51zm42.068-31.434c-3.712 2.136-9.989 1.063-16.795-2.866-3.897-2.25-7.702-5.292-11.003-8.797a.994.994 0 0 0-.466-.28L51.098 39.22l7.058-5.168a1 1 0 0 0 .308-1.246c-1.592-3.26-2.43-6.374-2.423-9.002.009-3.022 1.126-5.26 3.232-6.472 3.708-2.135 9.989-1.063 16.795 2.867C87.636 26.877 97.025 39.619 97 48.6c-.009 3.023-1.126 5.262-3.232 6.474z"/><path d="M73.852 44.088l1.359.785.006-2.014-1.36-.784zM74.999 27.91c-.707-.408-1.357-.662-1.952-.756-.595-.098-1.11-.071-1.545.077-.434.145-.86.398-1.28.75l.736 1.134c1.153-.966 2.486-1.012 3.997-.14a6.818 6.818 0 0 1 2.48 2.469c.627 1.053.94 2.082.937 3.089-.003 1.163-.383 1.87-1.138 2.119-.754.248-1.81-.002-3.167-.756l-.111.053.261 4.003.666.384.188-2.863c.613.268 1.18.432 1.7.49s.984.008 1.387-.15c.407-.158.724-.46.952-.912.23-.452.347-1.033.349-1.741.004-1.323-.405-2.668-1.229-4.041-.824-1.37-1.903-2.443-3.231-3.21zM59.418 65.643l-2.864-1.674-2.864-1.675-2.863-1.674c.043.025.064.058.064.091 0-.033-.021-.066-.064-.091l-2.864-1.675L45.1 57.27c.043.025.064.059.064.092 0-.033-.021-.067-.064-.092l-2.864-1.674-2.864-1.675-2.863-1.674-2.864-1.675-3.033-1.773a.344.344 0 0 0-.318 0l-2.797 1.604-2.863 1.643-2.864 1.643-2.863 1.643c-.043.025-.066.058-.066.09-.003.036.023.07.063.094l3.033 1.773 2.863 1.675 2.864 1.675c-.045-.026-.067-.06-.067-.094 0-.033.022-.067.067-.092l.157-.09-2.546-1.49 2.546-1.46 2.546 1.489-2.546 1.46-.157.09c-.045.026-.067.06-.067.093s.022.068.067.094l2.863 1.674 2.864 1.675 2.864 1.674 2.863 1.675 2.864 1.675 2.864 1.674 2.863 1.675 2.864 1.674 2.864 1.675c-.09-.052-.09-.135 0-.186l.157-.09-2.546-1.489 2.546-1.46 2.546 1.488.318-.182-2.546-1.489 2.545-1.46 2.546 1.489-2.545 1.46-.318.182-2.546 1.46-.157.091c-.09.051-.09.134 0 .186l2.863 1.675a.31.31 0 0 0 .16.037.297.297 0 0 0 .158-.037l2.863-1.643 2.864-1.643 2.863-1.643 2.798-1.605c.043-.025.069-.056.069-.092 0-.034-.023-.067-.066-.092l-2.864-1.675-2.864-1.674-2.863-1.675zm-9.006 1.664l-2.545 1.46-2.546-1.488 2.545-1.46 2.546 1.488zm-2.228-1.671l2.546-1.46 2.545 1.488-2.545 1.46-2.546-1.488zm2.546 1.857l2.546 1.488.318-.182-2.546-1.489 2.545-1.46 2.546 1.489-2.545 1.46-.318.182-2.546 1.46-2.545-1.488 2.545-1.46zm5.727.031l2.546 1.49-2.546 1.46-2.545-1.49 2.545-1.46zm.318-.182l2.482-1.424 2.546 1.488-2.482 1.425-2.546-1.489zm-.318-.186l-2.546-1.489 2.483-1.424 2.545 1.489-2.482 1.424zm-.224-3.19l-.157.091-2.483 1.425-2.545-1.49 2.482-1.423 2.546 1.488.157-.09zm-3.02-1.583l-2.483 1.424-.318.182-2.546 1.46-2.545-1.488 2.545-1.46 2.546 1.488.318-.182-2.546-1.489 2.483-1.424 2.545 1.489zm-19.665-8.255l2.546 1.488-2.546 1.46-2.546-1.488 2.546-1.46zm2.864 1.674l2.545 1.489-2.545 1.46-2.546-1.488 2.546-1.46zm2.863 1.675l2.546 1.489-2.546 1.46-2.546-1.489 2.546-1.46zm-2.863 1.643l2.546 1.488-2.546 1.46-2.546-1.488 2.546-1.46zm2.863 1.674l2.546 1.489.318-.182-2.546-1.49 2.546-1.46 2.546 1.49-2.546 1.46-.318.182-2.545 1.46-2.546-1.488 2.545-1.46zm2.864 1.675l2.546 1.489-2.546 1.46-2.545-1.489 2.545-1.46zm.318-.183l2.545-1.46 2.546 1.489-2.545 1.46-2.546-1.489zm8.21-1.706zm-2.801 1.552l-2.546-1.488 2.483-1.425 2.546 1.49-2.483 1.423zm-.381-3.099l-2.483 1.425-2.545-1.489 2.482-1.424 2.546 1.488zm-2.706-1.765l-.158.09-2.482 1.425-2.546-1.489 2.482-1.424 2.546 1.489.158-.09zm-5.504-.16L36.73 55.62l2.483-1.424 2.546 1.488-2.483 1.425zm-2.864-1.674l-2.545-1.489 2.482-1.424 2.546 1.489-2.483 1.424zm-2.863-1.675l-.318.183-2.546 1.46-2.545-1.488 2.545-1.46 2.546 1.488.318-.183-2.546-1.488 2.483-1.425 2.545 1.49-2.482 1.423zm-3.093-4.684l2.712 1.585.157-.09-.157.09-2.483 1.425-2.712-1.586 2.483-1.424zm-5.664 3.25l2.712 1.585.318-.182-2.712-1.586 2.545-1.46 2.712 1.585-2.545 1.46-.318.183-2.546 1.46-2.711-1.585 2.545-1.46zm-2.863 1.642l2.712 1.586-2.546 1.46-2.712-1.586 2.546-1.46zm3.03 4.72l-.158.091.158-.09-2.546-1.489 2.546-1.46 2.545 1.488-2.545 1.46zm2.863-1.642l-2.546-1.489 2.546-1.46 2.546 1.489-2.546 1.46zm.318.186l2.546-1.46 2.545 1.488-2.545 1.46-2.546-1.488zm2.546 1.857l2.545 1.489.318-.183-2.546-1.488 2.546-1.46 2.546 1.488-2.546 1.46-.318.183-2.545 1.46-2.546-1.489 2.546-1.46zm2.863 1.675l2.546 1.488-2.545 1.46-2.546-1.488 2.545-1.46zm-.224 3.132c0-.034.023-.067.067-.093-.044.026-.067.059-.067.093zm3.088-1.458l2.546 1.489-2.546 1.46-2.546-1.488 2.546-1.46zm2.864 1.675L41.82 65.6l-2.545 1.46-2.546-1.488 2.546-1.46zm2.863 1.674l2.546 1.489.318-.182-2.546-1.49 2.546-1.46 2.545 1.49-2.545 1.46-.318.182-2.545 1.46-2.546-1.488 2.545-1.46zm2.864 1.675l2.546 1.489-2.546 1.46-2.545-1.489 2.545-1.46zm2.864 1.674l2.545 1.49-2.545 1.46-2.546-1.49 2.546-1.46zm2.863 4.624l-.157.09.157-.09-2.545-1.488 2.545-1.46 2.546 1.488-2.546 1.46zm2.864-1.643l-2.546-1.488 2.546-1.46 2.545 1.488-2.545 1.46zm2.864 4.992l-2.546-1.488 2.546-1.46 2.545 1.488-2.545 1.46zm2.863-1.642l-2.546-1.49 2.546-1.46 2.546 1.49-2.546 1.46zm2.864-1.643l-2.546-1.489 2.545-1.46 2.546 1.488-2.545 1.46zm2.863-1.643l-2.546-1.489 2.483-1.424 2.546 1.489-2.483 1.424zm-2.864-1.675l-.318.183-2.545 1.46-2.546-1.489 2.546-1.46 2.545 1.489.318-.183-2.545-1.488 2.482-1.425 2.546 1.49-2.483 1.423z"/>
</g>
</svg>