<svg height="100" width="100" xmlns="http://www.w3.org/2000/svg" viewBox="0 0 100 100">
<g fill="#d96528">
<path d="M55.272 45l.121-.08a1 1 0 0 0-1.11-1.664l-.923.616-22.486-13.269a.25.25 0 0 0-.369.152l-2.214 8.4-8.067-4.589a.243.243 0 0 0-.22-.013.249.249 0 0 0-.145.165l-4.612 16.91c-.03.11.017.225.115.282l41.29 23.999a.252.252 0 0 0 .227.013.248.248 0 0 0 .143-.177l1.896-8.88 7.828 4.484a.242.242 0 0 0 .121.033h.004c.009 0 .017-.006.026-.007.026-.003.052-.003.076-.015.003-.001.002-.005.005-.006a.241.241 0 0 0 .11-.098c.007-.014 0-.03.005-.045.004-.012.02-.015.023-.028l3.52-16.92a.249.249 0 0 0-.118-.265L55.272 45zm-.664.443l.203-.135 7.257 4.283-1.688 7.968-7.75-4.445 1.978-7.67zm-1.71-1.263l-3.94 2.625-.675-2.94a1 1 0 0 0-1.95.447l1 4.352a.998.998 0 0 0 1.53.608l5.122-3.413-1.804 6.997-7.674-4.401 2.095-7.99 6.296 3.715zm-8.522 4.775l7.675 4.402L50.03 61.2l-7.706-4.413 2.052-7.83zm-2.502 7.573l-7.205-4.126 2.102-7.809 7.155 4.104-2.052 7.831zm4.28-16.328l-2.096 7.997-7.153-4.103 2.173-8.07 7.075 4.176zm-15.25-9l7.728 4.56-2.175 8.077-7.716-4.425 2.164-8.211zm-2.294 8.712l7.713 4.424-2.103 7.809-7.675-4.396 2.065-7.837zm-8.354-4.751l7.903 4.495-2.064 7.835-7.958-4.558 2.12-7.772zM15.78 51.575L18 43.43l7.963 4.56-2.172 8.24-8.011-4.656zm8.46 4.917l2.173-8.243 7.673 4.394-2.228 8.277-7.618-4.428zm8.065 4.688l2.23-8.28 7.207 4.129-2.192 8.362-7.245-4.211zM40 65.652l2.193-8.366 7.708 4.415-2.177 8.44L40 65.653zm16.605 9.651l-8.431-4.9 2.177-8.444 8.112 4.646-1.858 8.698zm1.967-9.211l-8.092-4.635 2.021-7.841 7.77 4.456-1.699 8.02zm8.124 4.653l-7.668-4.392 1.698-8.02 7.64 4.382-1.67 8.03zm1.778-8.544l-7.64-4.381 1.687-7.962 7.589 4.479-1.636 7.864z"/><path d="M95.264 81.061l-14-39.749c-.003-.01-.011-.016-.015-.025a.993.993 0 0 0-.184-.308c-.013-.014-.03-.023-.044-.036a.984.984 0 0 0-.189-.158l-4.48-2.67c.542-.757 1.3-1.114 1.78-.919.351.144.597.576.657 1.158.057.547.54.935 1.098.891.55-.057.949-.549.892-1.099-.139-1.327-.845-2.374-1.889-2.801-1.464-.599-3.207.176-4.257 1.746l-3.292-1.961c.543-.768 1.31-1.13 1.791-.934.351.144.597.576.657 1.158.057.547.542.934 1.098.891.55-.057.949-.549.892-1.099-.139-1.327-.845-2.374-1.889-2.801-1.469-.6-3.22.18-4.267 1.761l-3.65-2.175c.486-.766 1.22-1.134 1.67-.95.312.128.53.516.583 1.036.05.491.483.842.977.798a.895.895 0 0 0 .792-.983c-.123-1.189-.75-2.126-1.679-2.509-.87-.358-1.852-.155-2.688.431a.98.98 0 0 0 .151-.608c-.139-1.327-.845-2.374-1.889-2.801-1.477-.605-3.243.19-4.288 1.79l-3.966-2.362c.502-.516 1.097-.739 1.496-.577.351.144.597.576.657 1.158.057.548.54.938 1.098.891.55-.057.949-.549.892-1.099-.139-1.327-.845-2.374-1.889-2.801-1.347-.552-2.933.063-3.996 1.39l-3.27-1.949c.505-.525 1.107-.754 1.508-.59.351.144.597.576.657 1.158.056.547.542.937 1.098.891.55-.057.949-.549.892-1.099-.139-1.327-.845-2.374-1.889-2.801-1.352-.553-2.944.069-4.007 1.404L45.61 19.8c.507-.533 1.115-.767 1.522-.603.351.144.597.576.657 1.158.056.547.543.936 1.098.891.55-.057.949-.549.892-1.099-.139-1.327-.845-2.374-1.889-2.801-1.358-.556-2.955.073-4.018 1.419l-3.274-1.95c.51-.545 1.125-.784 1.534-.618.351.144.597.576.657 1.158.056.547.544.935 1.098.891.55-.057.949-.549.892-1.099-.139-1.327-.845-2.374-1.889-2.801-1.363-.557-2.966.078-4.028 1.434l-3.276-1.952c.513-.554 1.134-.8 1.546-.63.351.143.597.575.657 1.157.056.547.544.934 1.098.891.55-.057.949-.549.892-1.099-.139-1.327-.845-2.374-1.889-2.801-1.367-.559-2.977.083-4.039 1.448l-3.278-1.953c.514-.563 1.141-.813 1.56-.644.35.144.596.576.656 1.158.056.547.545.933 1.098.891.55-.057.949-.549.892-1.099-.139-1.327-.845-2.374-1.889-2.801-1.371-.561-2.987.088-4.05 1.463l-3.28-1.954c.518-.573 1.152-.83 1.572-.658.351.144.597.576.657 1.158.056.548.546.939 1.098.891.55-.057.949-.549.892-1.099-.139-1.327-.845-2.374-1.889-2.801-1.376-.563-2.998.093-4.06 1.478l-2.498-1.488a1.003 1.003 0 0 0-1.478.604L6.104 58.032a1 1 0 0 0 .446 1.11l61 37.156c.035.022.074.032.111.048.03.014.057.028.087.038.105.036.213.06.323.06a1.003 1.003 0 0 0 .73-.317l12.83-13.734h12.69a1 1 0 0 0 .943-1.332zm-2.645-1.49L75.075 69.185l5.452-23.945 12.092 34.331zM63.132 28.196c.351.144.597.576.657 1.158.056.548.543.939 1.098.891.088-.009.163-.046.242-.075a4.422 4.422 0 0 0-.69.847L61.32 29.16c.545-.788 1.322-1.163 1.812-.964zm4.272 65.67L8.228 57.822l13.22-50.089 1.487.885c-.566 2.008.123 4.022 1.701 4.67a.998.998 0 0 0 1.304-.546.998.998 0 0 0-.546-1.304c-.453-.187-.74-.893-.651-1.742L27.94 11.6c-.574 2.014.114 4.038 1.696 4.686a.998.998 0 0 0 1.304-.546.998.998 0 0 0-.546-1.303c-.457-.188-.745-.904-.65-1.762l3.202 1.907c-.584 2.02.103 4.054 1.69 4.704a.998.998 0 0 0 1.304-.546.998.998 0 0 0-.546-1.303c-.46-.19-.748-.914-.647-1.781l3.205 1.909c-.593 2.025.093 4.069 1.684 4.721a.998.998 0 0 0 1.304-.546.998.998 0 0 0-.546-1.303c-.463-.19-.751-.925-.643-1.8l3.206 1.91c-.602 2.031.083 4.085 1.68 4.74a.998.998 0 0 0 1.304-.546.998.998 0 0 0-.547-1.304c-.467-.192-.754-.936-.64-1.82l3.209 1.913c-.612 2.036.072 4.1 1.673 4.756a.998.998 0 0 0 1.304-.546.998.998 0 0 0-.546-1.303c-.47-.194-.757-.946-.636-1.838l3.21 1.913c-.62 2.042.063 4.116 1.668 4.774a.998.998 0 0 0 1.304-.546.998.998 0 0 0-.546-1.303c-.473-.195-.76-.957-.633-1.857l4.075 2.428c-.375 1.872.325 3.674 1.8 4.278a.998.998 0 0 0 1.304-.546.998.998 0 0 0-.546-1.303c-.371-.153-.629-.656-.662-1.3l3.04 1.812c-.187 1.548.432 2.98 1.652 3.484a.887.887 0 0 0 1.159-.489.895.895 0 0 0-.485-1.167c-.247-.102-.433-.383-.527-.756l3.271 1.949c-.393 1.886.309 3.707 1.794 4.316a.998.998 0 0 0 1.304-.546.998.998 0 0 0-.546-1.303c-.38-.157-.644-.679-.667-1.344l3.118 1.857c-.402 1.894.3 3.725 1.791 4.336a.998.998 0 0 0 1.304-.546.998.998 0 0 0-.546-1.303c-.384-.158-.648-.69-.666-1.365l3.456 2.06-11.78 51.735zm13.061-13.155L69.867 92.056 73.52 76.02l7.202 4.51a.982.982 0 0 0-.256.182zm.98-.318l-7.809-4.89 1.323-5.807 17.918 10.608.032.09H81.445z"/>
</g>
</svg>